<svg xmlns="http://www.w3.org/2000/svg" width="960" height="420" viewBox="0 0 960 420">
  <rect width="100%" height="100%" fill="white"/>
  <text x="70" y="32" font-size="24" font-weight="700">Germany reunification</text>
  <text x="70" y="52" font-size="13" fill="#555">gdp</text>
  <rect x="70" y="70" width="820" height="260" fill="#fafafa" stroke="#ddd"/>
  <line x1="70" y1="330" x2="890" y2="330" stroke="#777"/>
  <line x1="70" y1="70" x2="70" y2="330" stroke="#777"/>
  <polyline fill="none" stroke="#0f766e" stroke-width="2.6" points="70.00,307.31 89.07,306.31 108.14,297.54 127.21,293.37 146.28,289.23 165.35,280.11 184.42,276.67 203.49,274.28 222.56,267.16 241.63,261.18 260.70,257.04 279.77,250.51 298.84,246.36 317.91,240.03 336.98,233.65 356.05,231.49 375.12,224.95 394.19,220.67 413.26,214.55 432.33,211.22 451.40,205.08 470.47,199.26 489.53,192.41 508.60,186.79 527.67,185.15 546.74,179.12 565.81,171.76 584.88,170.37 603.95,162.88 623.02,157.09 642.09,151.68 661.16,147.96 680.23,144.90 699.30,140.41 718.37,135.69 737.44,128.54 756.51,126.85 775.58,122.12 794.65,116.60 813.72,112.75 832.79,108.31 851.86,105.10 870.93,98.94 890.00,95.02"/>
  <polyline fill="none" stroke="#7c3aed" stroke-width="2.6" points="70.00,312.07 89.07,307.92 108.14,302.05 127.21,295.07 146.28,290.34 165.35,283.99 184.42,278.40 203.49,274.02 222.56,267.53 241.63,260.33 260.70,255.25 279.77,252.59 298.84,245.44 317.91,241.66 336.98,234.31 356.05,231.22 375.12,225.42 394.19,221.41 413.26,217.89 432.33,209.80 451.40,205.59 470.47,201.72 489.53,196.79 508.60,192.75 527.67,189.47 546.74,184.29 565.81,180.35 584.88,172.82 603.95,169.30 623.02,164.53 642.09,158.80 661.16,154.42 680.23,146.73 699.30,145.38 718.37,139.35 737.44,133.81 756.51,127.24 775.58,122.45 794.65,118.89 813.72,112.70 832.79,104.41 851.86,98.13 870.93,92.57 890.00,87.93"/>
  <line x1="642.09" y1="70" x2="642.09" y2="330" stroke="#111" stroke-dasharray="6 6"/>
  <text x="648.09" y="86" font-size="12" fill="#111">Intervention</text>
  <text x="70" y="358" font-size="12" fill="#444">1960</text>
  <text x="462.00" y="358" font-size="12" fill="#444">1982</text>
  <text x="848.00" y="358" font-size="12" fill="#444">2003</text>
  <rect x="70" y="362" width="12" height="12" fill="#0f766e"/>
  <text x="88" y="372" font-size="13">Observed</text>
  <rect x="190" y="362" width="12" height="12" fill="#7c3aed"/>
  <text x="208" y="372" font-size="13">Counterfactual</text>
</svg>